<svg width="17" height="16" viewBox="0 0 17 16" fill="none" xmlns="http://www.w3.org/2000/svg">
<g opacity="0.5">
<path d="M3.46792 7.58185V2.27263C3.46792 1.5178 4.08585 0.899878 4.84068 0.899878H11.2045H11.2045C11.3154 0.899899 11.4217 0.943966 11.5001 1.02239L3.46792 7.58185ZM3.46792 7.58185H2.77245C2.01762 7.58185 1.39969 8.19978 1.39969 8.95461V13.7274C1.39969 14.4823 2.01762 15.1002 2.77245 15.1002H14.2273C14.9821 15.1002 15.6 14.4823 15.6 13.7274V8.95461C15.6 8.19978 14.9821 7.58185 14.2273 7.58185H13.85V3.54539V3.54537C13.85 3.43447 13.8059 3.32812 13.7275 3.24971C13.7275 3.24971 13.7275 3.24971 13.7275 3.24971L11.5002 1.02239L3.46792 7.58185ZM12.2307 8.3705L12.2307 8.37052L11.8237 9.59229C11.8237 9.5923 11.8237 9.59231 11.8237 9.59232C11.7801 9.72302 11.6605 9.80918 11.5227 9.80918H5.68898C5.56052 9.80918 5.45068 9.72628 5.41536 9.60267L5.07045 8.39517L5.07045 8.39516C4.96278 8.01832 4.66685 7.73451 4.3043 7.62889V2.27263C4.3043 1.96981 4.53785 1.73626 4.84068 1.73626H10.4681V3.2272C10.4681 3.80576 10.9441 4.28177 11.5227 4.28177H13.0136V7.62762C12.6527 7.72932 12.3536 8.00198 12.2307 8.3705ZM12.6175 9.85691L12.6175 9.85689L13.0245 8.63511C13.0245 8.6351 13.0245 8.6351 13.0245 8.63509C13.0681 8.50439 13.1877 8.41823 13.3255 8.41823H14.2273C14.5301 8.41823 14.7636 8.65178 14.7636 8.95461V13.7274C14.7636 14.0303 14.5301 14.2638 14.2273 14.2638H2.77245C2.46962 14.2638 2.23607 14.0303 2.23607 13.7274V8.95461C2.23607 8.65178 2.46962 8.41823 2.77245 8.41823H3.99238C4.12084 8.41823 4.23068 8.50113 4.266 8.62474L4.61091 9.83224L4.70707 9.80477L4.61091 9.83224C4.74801 10.3121 5.18991 10.6456 5.68898 10.6456H11.5227C12.0179 10.6456 12.4608 10.3269 12.6175 9.85691ZM11.3045 2.00943L12.7404 3.44539H11.5227C11.3961 3.44539 11.3045 3.35375 11.3045 3.2272V2.00943Z" fill="#070F21" stroke="#070F21" stroke-width="0.2"/>
<path d="M6.11342 4.4C6.00251 4.4 5.89614 4.44406 5.81771 4.52248C5.73929 4.60091 5.69523 4.70728 5.69523 4.81819C5.69523 4.9291 5.73929 5.03547 5.81771 5.11389C5.89614 5.19232 6.00251 5.23638 6.11342 5.23638H9.93169C10.0426 5.23638 10.149 5.19232 10.2274 5.11389C10.3058 5.03547 10.3499 4.9291 10.3499 4.81819C10.3499 4.70728 10.3058 4.60091 10.2274 4.52248C10.149 4.44406 10.0426 4.4 9.93169 4.4H6.11342Z" fill="#070F21" stroke="#070F21" stroke-width="0.2"/>
<path d="M6.11342 5.99088C6.00251 5.99088 5.89614 6.03494 5.81771 6.11337C5.73929 6.19179 5.69523 6.29816 5.69523 6.40907C5.69523 6.51998 5.73929 6.62635 5.81771 6.70478C5.89614 6.7832 6.00251 6.82726 6.11342 6.82726H11.2044C11.3154 6.82726 11.4217 6.7832 11.5001 6.70478C11.5786 6.62635 11.6226 6.51998 11.6226 6.40907C11.6226 6.29816 11.5786 6.19179 11.5001 6.11337C11.4217 6.03494 11.3154 5.99088 11.2044 5.99088H6.11342Z" fill="#070F21" stroke="#070F21" stroke-width="0.2"/>
<path d="M6.11342 7.58182C6.00251 7.58182 5.89614 7.62588 5.81771 7.70431C5.73929 7.78273 5.69523 7.8891 5.69523 8.00001C5.69523 8.11092 5.73929 8.21729 5.81771 8.29572C5.89614 8.37414 6.00251 8.4182 6.11342 8.4182H9.93169C10.0426 8.4182 10.149 8.37414 10.2274 8.29572C10.3058 8.21729 10.3499 8.11092 10.3499 8.00001C10.3499 7.8891 10.3058 7.78273 10.2274 7.70431C10.149 7.62588 10.0426 7.58182 9.93169 7.58182H6.11342Z" fill="#070F21" stroke="#070F21" stroke-width="0.2"/>
</g>
</svg>
