<svg width="17" height="16" viewBox="0 0 17 16" fill="none" xmlns="http://www.w3.org/2000/svg">
<path d="M3.46799 7.58185V2.27263C3.46799 1.5178 4.08591 0.899878 4.84074 0.899878H11.2045H11.2045C11.3154 0.899899 11.4218 0.943966 11.5002 1.02239L3.46799 7.58185ZM3.46799 7.58185H2.77251C2.01768 7.58185 1.39976 8.19978 1.39976 8.95461V13.7274C1.39976 14.4823 2.01768 15.1002 2.77251 15.1002H14.2273C14.9822 15.1002 15.6001 14.4823 15.6001 13.7274V8.95461C15.6001 8.19978 14.9822 7.58185 14.2273 7.58185H13.85V3.54539V3.54537C13.85 3.43447 13.806 3.32812 13.7275 3.24971C13.7275 3.24971 13.7275 3.24971 13.7275 3.24971L11.5002 1.02239L3.46799 7.58185ZM12.2308 8.3705L12.2308 8.37052L11.8237 9.59229C11.8237 9.5923 11.8237 9.59231 11.8237 9.59232C11.7801 9.72302 11.6605 9.80918 11.5227 9.80918H5.68904C5.56058 9.80918 5.45074 9.72628 5.41542 9.60267L5.07051 8.39517L5.07051 8.39516C4.96284 8.01832 4.66691 7.73451 4.30436 7.62889V2.27263C4.30436 1.96981 4.53791 1.73626 4.84074 1.73626H10.4681V3.2272C10.4681 3.80576 10.9442 4.28177 11.5227 4.28177H13.0137V7.62762C12.6527 7.72932 12.3537 8.00198 12.2308 8.3705ZM12.6175 9.85691L12.6175 9.85689L13.0246 8.63511C13.0246 8.6351 13.0246 8.6351 13.0246 8.63509C13.0682 8.50439 13.1878 8.41823 13.3256 8.41823H14.2273C14.5302 8.41823 14.7637 8.65178 14.7637 8.95461V13.7274C14.7637 14.0303 14.5302 14.2638 14.2273 14.2638H2.77251C2.46968 14.2638 2.23613 14.0303 2.23613 13.7274V8.95461C2.23613 8.65178 2.46968 8.41823 2.77251 8.41823H3.99244C4.12091 8.41823 4.23075 8.50113 4.26606 8.62474L4.61097 9.83224L4.70713 9.80477L4.61098 9.83224C4.74807 10.3121 5.18997 10.6456 5.68904 10.6456H11.5227C12.018 10.6456 12.4608 10.3269 12.6175 9.85691ZM11.3045 2.00943L12.7405 3.44539H11.5227C11.3962 3.44539 11.3045 3.35375 11.3045 3.2272V2.00943Z" fill="white" stroke="white" stroke-width="0.2"/>
<path d="M6.1136 4.4C6.00269 4.4 5.89632 4.44406 5.8179 4.52248C5.73947 4.60091 5.69541 4.70728 5.69541 4.81819C5.69541 4.9291 5.73947 5.03547 5.81789 5.11389C5.89632 5.19232 6.00269 5.23638 6.1136 5.23638H9.93187C10.0428 5.23638 10.1491 5.19232 10.2276 5.11389C10.306 5.03547 10.3501 4.9291 10.3501 4.81819C10.3501 4.70728 10.306 4.60091 10.2276 4.52248C10.1491 4.44406 10.0428 4.4 9.93187 4.4H6.1136Z" fill="white" stroke="white" stroke-width="0.2"/>
<path d="M6.1136 5.99088C6.00269 5.99088 5.89632 6.03494 5.81789 6.11337C5.73947 6.19179 5.69541 6.29816 5.69541 6.40907C5.69541 6.51998 5.73947 6.62635 5.81789 6.70478C5.89632 6.7832 6.00269 6.82726 6.1136 6.82726H11.2046C11.3155 6.82726 11.4219 6.7832 11.5003 6.70478C11.5788 6.62635 11.6228 6.51998 11.6228 6.40907C11.6228 6.29816 11.5788 6.19179 11.5003 6.11337C11.4219 6.03494 11.3155 5.99088 11.2046 5.99088H6.1136Z" fill="white" stroke="white" stroke-width="0.2"/>
<path d="M6.1136 7.58182C6.00269 7.58182 5.89632 7.62588 5.8179 7.70431C5.73947 7.78273 5.69541 7.8891 5.69541 8.00001C5.69541 8.11092 5.73947 8.21729 5.8179 8.29572C5.89632 8.37414 6.00269 8.4182 6.1136 8.4182H9.93187C10.0428 8.4182 10.1491 8.37414 10.2276 8.29572C10.306 8.21729 10.3501 8.11092 10.3501 8.00001C10.3501 7.8891 10.306 7.78273 10.2276 7.70431C10.1491 7.62588 10.0428 7.58182 9.93187 7.58182H6.1136Z" fill="white" stroke="white" stroke-width="0.2"/>
</svg>
