<svg width="24" height="24" viewBox="0 0 24 24" fill="none" xmlns="http://www.w3.org/2000/svg">
<g opacity="0.8" clip-path="url(#clip0_3_809)">
<path d="M10.5032 5.84434C8.23769 6.36667 6.41697 8.16339 5.86474 10.4217C5.32225 12.64 5.95497 14.9044 7.55721 16.4788C8.14619 17.0576 8.48449 17.9212 8.48449 18.8479V20.2803C8.48458 22.4119 10.0426 24.0001 11.9996 24.0001C13.9382 24.0001 15.5148 22.423 15.5148 20.4845L15.5149 18.8499C15.5149 17.9338 15.87 17.053 16.4883 16.433C17.6746 15.2437 18.3279 13.6693 18.3279 12.0001C18.3279 8.00865 14.6348 4.89189 10.5032 5.84434ZM11.9997 22.5938C10.7972 22.5938 9.89036 21.5992 9.89032 20.2803V19.7344H14.1091V20.4844C14.1091 21.6475 13.1628 22.5938 11.9997 22.5938ZM15.4927 15.44C14.7331 16.2016 14.2537 17.2328 14.1372 18.3282H9.86374C9.75147 17.2232 9.28413 16.2042 8.54289 15.4758C7.27914 14.234 6.80088 12.5136 7.23072 10.7557C7.65794 9.00868 9.06649 7.61875 10.8192 7.21468C14.0446 6.47101 16.9216 8.87697 16.9216 12.0001C16.9216 13.2944 16.4141 14.5161 15.4927 15.44Z" fill="#070F21"/>
<path d="M11.2969 0.703125V2.15625C11.2969 2.54456 11.6117 2.85938 12 2.85938C12.3883 2.85938 12.7031 2.54456 12.7031 2.15625V0.703125C12.7031 0.314812 12.3883 0 12 0C11.6117 0 11.2969 0.314812 11.2969 0.703125Z" fill="#070F21"/>
<path d="M2.85938 12C2.85938 11.6117 2.54456 11.2969 2.15625 11.2969H0.703125C0.314812 11.2969 0 11.6117 0 12C0 12.3883 0.314812 12.7031 0.703125 12.7031H2.15625C2.54456 12.7031 2.85938 12.3883 2.85938 12Z" fill="#070F21"/>
<path d="M23.2969 11.2969H21.8438C21.4554 11.2969 21.1406 11.6117 21.1406 12C21.1406 12.3883 21.4554 12.7031 21.8438 12.7031H23.2969C23.6852 12.7031 24 12.3883 24 12C24 11.6117 23.6852 11.2969 23.2969 11.2969Z" fill="#070F21"/>
<path d="M3.12346 16.313L1.90565 17.0161C1.56932 17.2102 1.4541 17.6403 1.6483 17.9765C1.84307 18.3139 2.27343 18.4275 2.60877 18.2339L3.82658 17.5308C4.16291 17.3366 4.27813 16.9066 4.08393 16.5703C3.88972 16.234 3.45974 16.1188 3.12346 16.313Z" fill="#070F21"/>
<path d="M21.3905 5.76608L20.1727 6.4692C19.8364 6.66336 19.7212 7.09339 19.9154 7.42967C20.1102 7.76703 20.5405 7.88061 20.8759 7.68702L22.0937 6.98389C22.43 6.78974 22.5452 6.3597 22.351 6.02342C22.1568 5.68709 21.7268 5.57192 21.3905 5.76608Z" fill="#070F21"/>
<path d="M17.0162 1.90567L16.3131 3.12353C16.1189 3.45981 16.2341 3.88984 16.5704 4.08399C16.9053 4.27735 17.3359 4.16439 17.5309 3.82665L18.234 2.60879C18.4282 2.27251 18.313 1.84248 17.9767 1.64832C17.6403 1.45407 17.2104 1.56934 17.0162 1.90567Z" fill="#070F21"/>
<path d="M6.46935 3.82661C6.66411 4.16397 7.09447 4.27755 7.42982 4.08395C7.76614 3.8898 7.88136 3.45977 7.68716 3.12348L6.98403 1.90562C6.78988 1.5693 6.35985 1.45413 6.02357 1.64828C5.68724 1.84244 5.57202 2.27247 5.76622 2.60875L6.46935 3.82661Z" fill="#070F21"/>
<path d="M22.0937 17.0161L20.8759 16.313C20.5395 16.1187 20.1095 16.234 19.9154 16.5703C19.7212 16.9066 19.8364 17.3367 20.1727 17.5308L21.3905 18.2339C21.7254 18.4273 22.156 18.3143 22.351 17.9766C22.5452 17.6403 22.43 17.2103 22.0937 17.0161Z" fill="#070F21"/>
<path d="M3.82658 6.46927L2.60877 5.76614C2.27244 5.57184 1.84246 5.68716 1.6483 6.02349C1.4541 6.35977 1.56932 6.7898 1.90565 6.98395L3.12346 7.68708C3.45829 7.88044 3.88893 7.76747 4.08393 7.42974C4.27813 7.09345 4.16291 6.66342 3.82658 6.46927Z" fill="#070F21"/>
<path d="M12 9.1875C10.8369 9.1875 9.89062 10.1338 9.89062 11.2969C9.89062 11.6852 10.2054 12 10.5938 12C10.9821 12 11.2969 11.6852 11.2969 11.2969C11.2969 10.9092 11.6123 10.5938 12 10.5938C12.3877 10.5938 12.7031 10.9092 12.7031 11.2969C12.7031 11.5868 12.5292 11.8433 12.2599 11.9506C11.6749 12.1837 11.2969 12.7412 11.2969 13.3709V13.4062C11.2969 13.7946 11.6117 14.1094 12 14.1094C12.3883 14.1094 12.7031 13.7946 12.7031 13.4062V13.3709C12.7031 13.3212 12.7342 13.2754 12.7804 13.257C13.5877 12.9354 14.1094 12.166 14.1094 11.2969C14.1094 10.1338 13.1631 9.1875 12 9.1875Z" fill="#070F21"/>
<path d="M12 16.9219C12.3883 16.9219 12.7031 16.6071 12.7031 16.2188C12.7031 15.8304 12.3883 15.5156 12 15.5156C11.6117 15.5156 11.2969 15.8304 11.2969 16.2188C11.2969 16.6071 11.6117 16.9219 12 16.9219Z" fill="#070F21"/>
</g>
<defs>
<clipPath id="clip0_3_809">
<rect width="24" height="24" fill="white"/>
</clipPath>
</defs>
</svg>
