<svg width="22" height="22" viewBox="0 0 22 22" fill="none" xmlns="http://www.w3.org/2000/svg">
<path d="M4.98575 18.8445C4.73338 18.8435 4.49083 18.7392 4.31123 18.5529C4.13146 18.3665 4.02947 18.1131 4.02857 17.848V5.37429C4.02947 5.10915 4.13146 4.85583 4.31123 4.66941C4.49088 4.4831 4.73351 4.37873 4.98596 4.37782H5.59643V4.88893C5.59643 5.07638 5.6682 5.25685 5.79704 5.39046C5.926 5.5242 6.10171 5.60004 6.28571 5.60004C6.46972 5.60004 6.64542 5.5242 6.77439 5.39046C6.90323 5.25685 6.975 5.07638 6.975 4.88893V4.37782H10.3107V4.88893C10.3107 5.07638 10.3825 5.25685 10.5113 5.39046C10.6403 5.5242 10.816 5.60004 11 5.60004C11.184 5.60004 11.3597 5.5242 11.4887 5.39046C11.6175 5.25685 11.6893 5.07638 11.6893 4.88893V4.37782H15.025V4.88893C15.025 5.07638 15.0968 5.25685 15.2256 5.39046C15.3546 5.5242 15.5303 5.60004 15.7143 5.60004C15.8983 5.60004 16.074 5.5242 16.203 5.39046C16.3318 5.25685 16.4036 5.07638 16.4036 4.88893V4.37782H17.014C17.2665 4.37873 17.5091 4.4831 17.6888 4.66941C17.8685 4.85581 17.9705 5.10909 17.9714 5.37419C17.9714 5.37428 17.9714 5.37438 17.9714 5.37447V17.8478C17.9714 17.8479 17.9714 17.848 17.9714 17.8481C17.9705 18.1132 17.8685 18.3665 17.6888 18.5529L4.98575 18.8445ZM4.98575 18.8445C4.98587 18.8445 4.98598 18.8445 4.9861 18.8445M4.98575 18.8445L4.9861 18.8445M4.9861 18.8445H17.0139M17.0144 2.9556L17.0142 3.0556V2.9556H16.4036V2.44449C16.4036 2.25704 16.3318 2.07657 16.203 1.94295C16.074 1.80921 15.8983 1.73337 15.7143 1.73337C15.5303 1.73337 15.3546 1.80921 15.2256 1.94295C15.0968 2.07657 15.025 2.25704 15.025 2.44449V2.9556H11.6893V2.44449C11.6893 2.25704 11.6175 2.07657 11.4887 1.94295C11.3597 1.80921 11.184 1.73337 11 1.73337C10.816 1.73337 10.6403 1.80921 10.5113 1.94295C10.3825 2.07657 10.3107 2.25704 10.3107 2.44449V2.9556H6.975V2.44449C6.975 2.25704 6.90323 2.07657 6.77439 1.94295C6.64542 1.80921 6.46972 1.73337 6.28571 1.73337C6.10171 1.73337 5.926 1.80921 5.79704 1.94295C5.6682 2.07657 5.59643 2.25704 5.59643 2.44449V2.9556L4.98575 2.9556L4.98559 2.9556C4.36525 2.95661 3.77138 3.21265 3.33388 3.66634C2.89651 4.11992 2.65097 4.73406 2.65 5.374V5.37415L2.65 17.8482L2.65 17.8483C2.65097 18.4882 2.89651 19.1024 3.33388 19.556C3.77138 20.0097 4.36525 20.2657 4.98559 20.2667H4.98575H17.0142H17.0144C17.6347 20.2657 18.2286 20.0097 18.6661 19.556C19.1035 19.1024 19.349 18.4882 19.35 17.8483V17.8482V5.37415V5.374C19.349 4.73406 19.1035 4.11992 18.6661 3.66634C18.2286 3.21265 17.6347 2.95661 17.0144 2.9556Z" fill="white" stroke="white" stroke-width="0.2"/>
<path d="M6.945 10.9151L6.94501 10.9151C7.08735 11.0349 7.27722 11.1 7.47233 11.1C7.66744 11.1 7.85731 11.0349 7.99965 10.9151L7.99966 10.9151L9.96395 9.26092L9.96396 9.26093L9.96525 9.2598C10.1042 9.13863 10.1851 8.97237 10.1833 8.79556C10.1815 8.61879 10.0972 8.45393 9.95597 8.335C9.81523 8.21648 9.62794 8.15144 9.43499 8.15002C9.24204 8.14861 9.05358 8.21091 8.9106 8.3272L8.91059 8.32719L8.90929 8.32829L7.47233 9.53836L6.69077 8.8802C6.62064 8.81921 6.53773 8.7713 6.44721 8.73856C6.3564 8.70571 6.2592 8.68857 6.16118 8.68785C6.06316 8.68713 5.96566 8.70285 5.87425 8.73434C5.78284 8.76583 5.6988 8.81268 5.62736 8.87283C5.5559 8.93301 5.49826 9.00553 5.45881 9.08672C5.41932 9.16799 5.39911 9.25587 5.40003 9.34503C5.40095 9.43418 5.42297 9.52169 5.46408 9.60227C5.50501 9.68252 5.56382 9.75389 5.63611 9.81283L6.945 10.9151Z" fill="white" stroke="white" stroke-width="0.2"/>
<path d="M15.8889 9.06663H11.6111C11.4304 9.06663 11.2531 9.12025 11.119 9.22087C10.9843 9.3219 10.9 9.46607 10.9 9.62496C10.9 9.78384 10.9843 9.92802 11.119 10.029C11.2531 10.1297 11.4304 10.1833 11.6111 10.1833H15.8889C16.0696 10.1833 16.2469 10.1297 16.381 10.029C16.5157 9.92802 16.6 9.78384 16.6 9.62496C16.6 9.46607 16.5157 9.3219 16.381 9.22087C16.2469 9.12025 16.0696 9.06663 15.8889 9.06663Z" fill="white" stroke="white" stroke-width="0.2"/>
<path d="M8.9106 13.8272L8.91059 13.8272L8.90929 13.8283L7.47233 15.0384L6.69077 14.3802C6.62064 14.3192 6.53773 14.2713 6.44721 14.2386C6.3564 14.2057 6.25921 14.1886 6.16118 14.1879C6.06316 14.1871 5.96566 14.2028 5.87425 14.2343C5.78284 14.2658 5.6988 14.3127 5.62736 14.3728C5.5559 14.433 5.49826 14.5055 5.45881 14.5867C5.41932 14.668 5.39911 14.7559 5.40003 14.845C5.40095 14.9342 5.42297 15.0217 5.46408 15.1023C5.50501 15.1825 5.56382 15.2539 5.6361 15.3128L6.945 16.4151L6.94501 16.4151C7.08735 16.5349 7.27722 16.6 7.47233 16.6C7.66744 16.6 7.85731 16.5349 7.99965 16.4151L7.99966 16.4151L9.96395 14.7609L9.96396 14.7609L9.96525 14.7598C10.1042 14.6386 10.1851 14.4724 10.1833 14.2956C10.1815 14.1188 10.0972 13.9539 9.95597 13.835C9.81523 13.7165 9.62794 13.6514 9.43499 13.65C9.24204 13.6486 9.05358 13.7109 8.9106 13.8272Z" fill="white" stroke="white" stroke-width="0.2"/>
<path d="M15.8889 14.5666H11.6111C11.4304 14.5666 11.2531 14.6203 11.119 14.7209C10.9843 14.8219 10.9 14.9661 10.9 15.125C10.9 15.2838 10.9843 15.428 11.119 15.529C11.2531 15.6297 11.4304 15.6833 11.6111 15.6833H15.8889C16.0696 15.6833 16.2469 15.6297 16.381 15.529C16.5157 15.428 16.6 15.2838 16.6 15.125C16.6 14.9661 16.5157 14.8219 16.381 14.7209C16.2469 14.6203 16.0696 14.5666 15.8889 14.5666Z" fill="white" stroke="white" stroke-width="0.2"/>
</svg>
