<svg width="18" height="18" viewBox="0 0 18 18" fill="none" xmlns="http://www.w3.org/2000/svg">
<g opacity="0.8" clip-path="url(#clip0_3_244)">
<path d="M17.8164 8.53683L13.6539 4.1268C13.398 3.85547 12.971 3.84309 12.6997 4.09914C12.4287 4.35497 12.4162 4.78223 12.6722 5.05335L16.3976 8.99988L12.6722 12.9469C12.4162 13.218 12.4287 13.645 12.6997 13.9011C12.8302 14.0242 12.9969 14.0851 13.163 14.0851C13.3423 14.0851 13.5214 14.014 13.6539 13.8738L17.8164 9.46359C18.0619 9.20329 18.0619 8.79692 17.8164 8.53683Z" fill="#070F21"/>
<path d="M5.3285 12.9468L1.6034 9.00005L5.3285 5.05332C5.58434 4.78219 5.57196 4.3549 5.30084 4.0991C5.02992 3.84327 4.60242 3.85564 4.34662 4.12677L0.184097 8.53679C-0.0613656 8.79688 -0.0613656 9.20347 0.184097 9.46359L4.34683 13.8738C4.47958 14.0145 4.65846 14.0853 4.83779 14.0853C5.00384 14.0853 5.17058 14.0241 5.30084 13.901C5.57221 13.6452 5.58434 13.2179 5.3285 12.9468Z" fill="#070F21"/>
<path d="M10.0923 1.8522C9.724 1.7964 9.37929 2.04928 9.32304 2.41762L7.34303 15.3777C7.28678 15.7462 7.5399 16.0907 7.90845 16.147C7.94311 16.1522 7.97729 16.1546 8.01128 16.1546C8.33912 16.1546 8.62666 15.9155 8.67774 15.5816L10.6578 2.62149C10.714 2.25291 10.4609 1.90845 10.0923 1.8522Z" fill="#070F21"/>
</g>
<defs>
<clipPath id="clip0_3_244">
<rect width="18" height="18" fill="white"/>
</clipPath>
</defs>
</svg>
