<svg width="22" height="22" viewBox="0 0 22 22" fill="none" xmlns="http://www.w3.org/2000/svg">
<g clip-path="url(#clip0_3_1728)">
<path d="M21.8105 4.46027L17.4969 0.146454C17.3756 0.025066 17.211 -0.0430908 17.0394 -0.0430908H7.11765C6.04728 -0.0430908 5.17647 0.827721 5.17647 1.89809V10.4323C2.26876 10.7552 0 13.2273 0 16.2197C0 19.4307 2.61244 22.0432 5.82353 22.0432H20.0588C21.1292 22.0432 22 21.1724 22 20.102V4.91782C22 4.74618 21.9318 4.58165 21.8105 4.46027ZM17.6863 2.1661L19.0921 3.57198L19.7908 4.27063H17.6863V2.1661ZM1.29412 16.2197C1.29412 13.7221 3.32601 11.6902 5.82353 11.6902C8.32105 11.6902 10.3529 13.7221 10.3529 16.2197C10.3529 18.7172 8.32105 20.7491 5.82353 20.7491C3.32601 20.7491 1.29412 18.7172 1.29412 16.2197ZM20.0588 20.7491H9.47937C10.6425 19.8085 11.4373 18.4301 11.611 16.8667H18.3333C18.6907 16.8667 18.9804 16.577 18.9804 16.2197C18.9804 15.8623 18.6907 15.5726 18.3333 15.5726H11.6109C11.5054 14.6227 11.1707 13.741 10.6633 12.9844H18.3333C18.6907 12.9844 18.9804 12.6947 18.9804 12.3373C18.9804 11.98 18.6907 11.6902 18.3333 11.6902H9.47937C8.63729 11.0093 7.60242 10.558 6.47059 10.4323V1.89809C6.47059 1.5413 6.76086 1.25103 7.11765 1.25103H16.3922V4.91769C16.3922 5.27504 16.6819 5.56475 17.0392 5.56475H20.7059V20.102C20.7059 20.4588 20.4156 20.7491 20.0588 20.7491Z" fill="#070F21"/>
<path d="M18.3333 7.80786H8.8431C8.48575 7.80786 8.19604 8.09757 8.19604 8.45492C8.19604 8.81227 8.48575 9.10198 8.8431 9.10198H18.3333C18.6906 9.10198 18.9804 8.81227 18.9804 8.45492C18.9804 8.09757 18.6906 7.80786 18.3333 7.80786Z" fill="#070F21"/>
<path d="M8.39488 14.5973C8.14223 14.3447 7.73251 14.3447 7.47981 14.5973L4.91776 17.1594L4.08116 16.3228C3.8285 16.0701 3.41878 16.0701 3.16609 16.3228C2.91339 16.5754 2.91339 16.9851 3.16609 17.2378L4.4602 18.532C4.58655 18.6583 4.75216 18.7215 4.91776 18.7215C5.08336 18.7215 5.24897 18.6583 5.37527 18.532L8.39488 15.5124C8.64758 15.2597 8.64758 14.85 8.39488 14.5973Z" fill="#070F21"/>
</g>
<defs>
<clipPath id="clip0_3_1728">
<rect width="22" height="22" fill="white"/>
</clipPath>
</defs>
</svg>
