<svg width="22" height="22" viewBox="0 0 22 22" fill="none" xmlns="http://www.w3.org/2000/svg">
<path d="M3.66675 3.66671V18.3334C3.66675 18.8196 3.8599 19.2859 4.20372 19.6297C4.54754 19.9736 5.01385 20.1667 5.50008 20.1667H16.5001C16.9863 20.1667 17.4526 19.9736 17.7964 19.6297C18.1403 19.2859 18.3334 18.8196 18.3334 18.3334V7.64687C18.3334 7.40264 18.2846 7.16087 18.1898 6.93576C18.095 6.71066 17.9562 6.50676 17.7816 6.33604L13.7116 2.35587C13.3691 2.02098 12.9091 1.83343 12.4301 1.83337H5.50008C5.01385 1.83337 4.54754 2.02653 4.20372 2.37034C3.8599 2.71416 3.66675 3.18048 3.66675 3.66671V3.66671Z" stroke="#070F21" stroke-width="1.5" stroke-linecap="round" stroke-linejoin="round"/>
<path d="M8.25 11.9166H13.75" stroke="#070F21" stroke-width="1.5" stroke-linecap="round" stroke-linejoin="round"/>
<path d="M8.25 15.5834H11" stroke="#070F21" stroke-width="1.5" stroke-linecap="round" stroke-linejoin="round"/>
<path d="M12.8333 1.83337V5.50004C12.8333 5.98627 13.0264 6.45259 13.3702 6.7964C13.714 7.14022 14.1804 7.33337 14.6666 7.33337H18.3333" stroke="#070F21" stroke-width="1.5" stroke-linecap="round" stroke-linejoin="round"/>
</svg>
