<svg width="22" height="22" viewBox="0 0 22 22" fill="none" xmlns="http://www.w3.org/2000/svg">
<path d="M8.14818 3.37805H11L12.9013 5.27929H17.6544C18.1586 5.27929 18.6422 5.47959 18.9987 5.83614C19.3553 6.1927 19.5556 6.67628 19.5556 7.18052V13.8348C19.5556 14.3391 19.3553 14.8227 18.9987 15.1792C18.6422 15.5358 18.1586 15.7361 17.6544 15.7361H8.14818C7.64394 15.7361 7.16036 15.5358 6.80381 15.1792C6.44726 14.8227 6.24695 14.3391 6.24695 13.8348V5.27929C6.24695 4.77505 6.44726 4.29146 6.80381 3.93491C7.16036 3.57836 7.64394 3.37805 8.14818 3.37805Z" stroke="#6248FF" stroke-width="1.2" stroke-linecap="round" stroke-linejoin="round"/>
<path d="M15.7531 15.7361V17.6373C15.7531 18.1416 15.5528 18.6252 15.1962 18.9817C14.8397 19.3383 14.3561 19.5386 13.8519 19.5386H4.34569C3.84145 19.5386 3.35787 19.3383 3.00132 18.9817C2.64477 18.6252 2.44446 18.1416 2.44446 17.6373V9.08178C2.44446 8.57754 2.64477 8.09395 3.00132 7.7374C3.35787 7.38085 3.84145 7.18054 4.34569 7.18054H6.24693" stroke="#6248FF" stroke-width="1.2" stroke-linecap="round" stroke-linejoin="round"/>
</svg>
