<svg width="21" height="21" viewBox="0 0 21 21" fill="none" xmlns="http://www.w3.org/2000/svg">
<path d="M8.83539 17.6353C10.3236 17.6353 11.6825 17.3117 12.9766 16.6L16.4707 20.0941C17.4413 21.0647 19.0589 21.0647 20.0942 20.0941C21.1295 19.1235 21.1295 17.4412 20.0942 16.4706L16.6001 12.9764C17.2472 11.747 17.6354 10.3235 17.6354 8.83527C17.6354 4.04703 13.6883 0.0999756 8.83539 0.0999756C4.04716 0.0999756 0.100098 4.04703 0.100098 8.83527C0.100098 13.6882 4.04716 17.6353 8.83539 17.6353ZM19.1236 17.3764C19.6413 17.8941 19.6413 18.6706 19.1236 19.1882C18.606 19.7059 17.8295 19.7059 17.3119 19.1882L14.0119 15.8882C14.7883 15.3059 15.2413 14.8529 15.8236 14.0764L19.1236 17.3764ZM8.83539 1.39409C12.9766 1.39409 16.2766 4.7588 16.2766 8.83527C16.2766 12.9764 12.9119 16.2764 8.83539 16.2764C4.75892 16.3412 1.39422 12.9764 1.39422 8.83527C1.39422 4.7588 4.75892 1.39409 8.83539 1.39409Z" fill="#070F21"/>
<path d="M4.95304 13.0412H12.7177C13.106 13.0412 13.3648 12.7823 13.3648 12.3941V11.4235C13.3648 10.1294 12.3295 8.83527 11.4883 8.12351C11.6825 7.73527 11.7472 7.34703 11.7472 6.89409C11.7472 5.27645 10.453 3.98233 8.83539 3.98233C7.21774 3.98233 5.92363 5.27645 5.92363 6.89409C5.92363 7.34703 6.05304 7.73527 6.18245 8.12351C5.21186 8.83527 4.30598 9.99998 4.30598 11.4235V12.3941C4.30598 12.7823 4.62951 13.0412 4.95304 13.0412ZM8.83539 5.27645C9.74127 5.27645 10.453 5.98821 10.453 6.89409C10.453 7.79998 9.74127 8.51174 8.83539 8.51174C7.92951 8.51174 7.21774 7.79998 7.21774 6.89409C7.21774 5.98821 7.99422 5.27645 8.83539 5.27645ZM5.6001 11.4235C5.6001 10.5176 6.24716 9.67645 7.02363 9.1588C7.54127 9.54704 8.12363 9.80586 8.83539 9.80586C9.54716 9.80586 10.1295 9.54704 10.6472 9.1588C11.2295 9.61174 12.0707 10.647 12.0707 11.4235V11.747H5.6001V11.4235Z" fill="#070F21"/>
</svg>
