<svg width="14" height="8" viewBox="0 0 14 8" fill="none" xmlns="http://www.w3.org/2000/svg">
<path fill-rule="evenodd" clip-rule="evenodd" d="M4.31645 0.733282H4.25981C3.77197 0.733207 3.4598 0.73316 3.19038 0.784606C2.08876 0.99497 1.21195 1.82577 0.987664 2.90827C0.932959 3.17227 0.933021 3.47725 0.933113 3.94104L0.93312 3.99995L0.933113 4.05886C0.933021 4.52264 0.932959 4.82763 0.987664 5.09163C1.21195 6.17414 2.08876 7.0049 3.19038 7.21527C3.45981 7.2667 3.77198 7.2667 4.25982 7.26661H4.31645H5.13312C5.39085 7.26661 5.59979 7.05773 5.59979 6.79994C5.59979 6.54225 5.39085 6.33327 5.13312 6.33327H4.31645C3.75284 6.33327 3.53652 6.33119 3.36544 6.29853C2.61584 6.15538 2.04552 5.59695 1.90158 4.90227C1.8689 4.74453 1.86645 4.54362 1.86645 3.99995C1.86645 3.45629 1.8689 3.25537 1.90158 3.09763C2.04552 2.40296 2.61584 1.84452 3.36544 1.70137C3.53652 1.66871 3.75284 1.66662 4.31645 1.66662H5.13312C5.39085 1.66662 5.59979 1.45768 5.59979 1.19995C5.59979 0.942218 5.39085 0.733282 5.13312 0.733282H4.31645ZM9.68311 1.66662C10.2468 1.66662 10.4631 1.66871 10.6342 1.70137C11.3837 1.84452 11.9541 2.40296 12.098 3.09763C12.1307 3.25537 12.1331 3.45629 12.1331 3.99995C12.1331 4.54362 12.1307 4.74453 12.098 4.90227C11.9541 5.59695 11.3837 6.15538 10.6342 6.29853C10.4631 6.33119 10.2468 6.33327 9.68311 6.33327H8.86645C8.60872 6.33327 8.39979 6.54225 8.39979 6.79994C8.39979 7.05773 8.60872 7.26661 8.86645 7.26661H9.68311H9.73976C10.2276 7.2667 10.5397 7.2667 10.8092 7.21527C11.9108 7.0049 12.7877 6.17414 13.0119 5.09163C13.0666 4.82763 13.0665 4.52265 13.0664 4.05887V3.99995V3.94103C13.0665 3.47725 13.0666 3.17227 13.0119 2.90827C12.7877 1.82577 11.9108 0.99497 10.8092 0.784606C10.5397 0.73316 10.2276 0.733207 9.73976 0.733282H9.68311H8.86645C8.60872 0.733282 8.39979 0.942218 8.39979 1.19995C8.39979 1.45768 8.60872 1.66662 8.86645 1.66662H9.68311ZM4.66708 3.53327C4.40935 3.53327 4.20041 3.74221 4.20041 3.99994C4.20041 4.25767 4.40935 4.46661 4.66708 4.46661H9.33376C9.59146 4.46661 9.80043 4.25767 9.80043 3.99994C9.80043 3.74221 9.59146 3.53327 9.33376 3.53327H4.66708Z" fill="#070F21"/>
</svg>
