<svg width="22" height="22" viewBox="0 0 22 22" fill="none" xmlns="http://www.w3.org/2000/svg">
<path d="M19.2507 17.6868H6.99133C6.48607 17.6868 6.07655 17.2772 6.07655 16.772C6.07655 16.2667 6.48607 15.8572 6.99133 15.8572H19.2504C19.7557 15.8572 20.1652 16.2667 20.1652 16.772C20.1652 17.2772 19.756 17.6868 19.2507 17.6868Z" fill="white"/>
<path d="M19.2507 11.9448H6.99133C6.48607 11.9448 6.07655 11.5353 6.07655 11.03C6.07655 10.5248 6.48607 10.1152 6.99133 10.1152H19.2504C19.7557 10.1152 20.1652 10.5248 20.1652 11.03C20.1655 11.5353 19.756 11.9448 19.2507 11.9448Z" fill="white"/>
<path d="M19.2507 6.20262H6.99133C6.48607 6.20262 6.07655 5.7931 6.07655 5.28784C6.07655 4.78257 6.48607 4.37305 6.99133 4.37305H19.2504C19.7557 4.37305 20.1652 4.78257 20.1652 5.28784C20.1652 5.7931 19.756 6.20262 19.2507 6.20262Z" fill="white"/>
<path d="M3.06193 6.58713C3.74044 6.58713 4.29049 6.03708 4.29049 5.35857C4.29049 4.68005 3.74044 4.13 3.06193 4.13C2.38341 4.13 1.83337 4.68005 1.83337 5.35857C1.83337 6.03708 2.38341 6.58713 3.06193 6.58713Z" fill="white"/>
<path d="M3.06196 12.2584C3.74047 12.2584 4.29052 11.7083 4.29052 11.0298C4.29052 10.3513 3.74047 9.80127 3.06196 9.80127C2.38344 9.80127 1.8334 10.3513 1.8334 11.0298C1.8334 11.7083 2.38344 12.2584 3.06196 12.2584Z" fill="white"/>
<path d="M3.06196 17.9299C3.74047 17.9299 4.29052 17.3799 4.29052 16.7013C4.29052 16.0228 3.74047 15.4728 3.06196 15.4728C2.38344 15.4728 1.8334 16.0228 1.8334 16.7013C1.8334 17.3799 2.38344 17.9299 3.06196 17.9299Z" fill="white"/>
</svg>
