<svg width="24" height="24" viewBox="0 0 24 24" fill="none" xmlns="http://www.w3.org/2000/svg">
<g clip-path="url(#clip0_3_861)">
<path opacity="0.8" fill-rule="evenodd" clip-rule="evenodd" d="M7.69518 13.3908C7.05042 13.3908 6.52661 12.867 6.52661 12.2222C6.52661 11.5793 7.05042 11.0555 7.69518 11.0555C8.33995 11.0555 8.86376 11.5793 8.86376 12.2222C8.86376 12.867 8.33995 13.3908 7.69518 13.3908ZM12.238 13.3908C11.5932 13.3908 11.0694 12.867 11.0694 12.2222C11.0694 11.5793 11.5932 11.0555 12.238 11.0555C12.8828 11.0555 13.4066 11.5793 13.4066 12.2222C13.4066 12.867 12.8828 13.3908 12.238 13.3908ZM15.6124 12.2222C15.6124 12.867 16.1362 13.3908 16.781 13.3908C17.4257 13.3908 17.9495 12.867 17.9495 12.2222C17.9495 11.5793 17.4257 11.0555 16.781 11.0555C16.1362 11.0555 15.6124 11.5793 15.6124 12.2222Z" fill="#070F21"/>
<path opacity="0.8" d="M12.02 2C6.21 2 2 6.74612 2 12.015C2 13.6975 2.49 15.4291 3.35 17.0115C3.51 17.2729 3.53 17.6024 3.42 17.9139L2.75 20.1572C2.6 20.698 3.06 21.0976 3.57 20.9374L5.59 20.3375C6.14 20.1572 6.57 20.3866 7.08 20.698C8.54 21.5583 10.36 22 12 22C16.96 22 22 18.1642 22 11.985C22 6.65598 17.7 2 12.02 2Z" stroke="#070F21" stroke-width="1.5" stroke-linecap="round" stroke-linejoin="round"/>
<path d="M18 7C16.3431 7 15 5.6569 15 4C15 2.3431 16.3431 1 18 1C19.6569 1 21 2.3431 21 4C21 4.7956 20.6839 5.55865 20.1213 6.1213C19.5586 6.68395 18.7956 7 18 7Z" fill="#E74926"/>
</g>
<defs>
<clipPath id="clip0_3_861">
<rect width="24" height="24" fill="white"/>
</clipPath>
</defs>
</svg>
