<svg width="22" height="22" viewBox="0 0 22 22" fill="none" xmlns="http://www.w3.org/2000/svg">
<path d="M11.6608 4.58614L10.317 4.58339C7.25167 4.57606 4.59058 7.06664 4.5695 10.0834V13.5576C4.5695 14.2817 4.47783 14.9885 4.08275 15.5907L3.81967 15.9922C3.41908 16.6009 3.84992 17.4167 4.5695 17.4167H17.4303C18.1499 17.4167 18.5798 16.6009 18.1802 15.9922L17.9171 15.5907C17.5229 14.9885 17.4303 14.2808 17.4303 13.5566V10.0843C17.3937 7.06664 14.7262 4.59347 11.6608 4.58614V4.58614Z" stroke="#070F21" stroke-width="1.5" stroke-linecap="round" stroke-linejoin="round"/>
<path d="M13.75 17.4166C13.75 18.146 13.4603 18.8454 12.9445 19.3612C12.4288 19.8769 11.7293 20.1666 11 20.1666C10.2707 20.1666 9.57118 19.8769 9.05546 19.3612C8.53973 18.8454 8.25 18.146 8.25 17.4166" stroke="#070F21" stroke-width="1.5" stroke-linecap="round" stroke-linejoin="round"/>
<path d="M11.0001 1.83337C11.4863 1.83337 11.9526 2.02653 12.2964 2.37034C12.6403 2.71416 12.8334 3.18048 12.8334 3.66671V4.58337H9.16675V3.66671C9.16675 3.18048 9.3599 2.71416 9.70372 2.37034C10.0475 2.02653 10.5139 1.83337 11.0001 1.83337Z" stroke="#070F21" stroke-width="1.5" stroke-linecap="round" stroke-linejoin="round"/>
</svg>
