<svg width="20" height="20" viewBox="0 0 20 20" fill="none" xmlns="http://www.w3.org/2000/svg">
<path d="M8.16933 1.66663C8.0113 1.6665 7.85968 1.72908 7.74775 1.84063L1.84167 7.74669C1.78621 7.8021 1.7422 7.86789 1.71218 7.94031C1.68216 8.01274 1.66671 8.09037 1.66671 8.16877C1.66671 8.24716 1.68216 8.3248 1.71218 8.39722C1.7422 8.46964 1.78621 8.53544 1.84167 8.59084C2.41438 9.16355 3.12033 9.29181 3.63438 9.29181C3.84616 9.29181 4.03408 9.27093 4.18322 9.24608L7.92175 12.9846C7.82431 13.3823 7.76067 13.786 7.73184 14.1936C7.67715 15.0308 7.76962 16.2061 8.59091 17.0274C8.70276 17.1391 8.85439 17.2018 9.01248 17.2018C9.17058 17.2018 9.3222 17.1391 9.43406 17.0274L12.8097 13.6518L16.6069 17.4499C16.8395 17.6826 18.0605 18.5258 18.2932 18.2931C18.5258 18.0604 17.6827 16.8375 17.45 16.6058L13.6538 12.8096L17.0274 9.434C17.1392 9.32214 17.2019 9.17051 17.2019 9.01242C17.2019 8.85433 17.1392 8.7027 17.0274 8.59084C16.2072 7.76956 15.0319 7.6761 14.1937 7.73178C13.7861 7.75962 13.3814 7.82425 12.9857 7.92268L9.24614 4.18416C9.27732 4.00253 9.29329 3.81861 9.29387 3.63432C9.29387 3.12127 9.16461 2.41433 8.59091 1.84063C8.47897 1.72908 8.32735 1.6665 8.16933 1.66663ZM8.02416 4.18615V4.18416V4.18615ZM8.02416 4.18416V4.18615C7.98966 4.29107 7.98496 4.40352 8.01059 4.51096C8.03622 4.61839 8.09117 4.71661 8.16933 4.79465L12.3871 9.01143C12.4655 9.0896 12.5642 9.14441 12.672 9.16969C12.7798 9.19498 12.8926 9.18975 12.9976 9.1546H12.9996L13.0165 9.15062C13.4258 9.02891 13.8473 8.95222 14.2733 8.92194C14.7764 8.88813 15.2705 8.93089 15.6752 9.10091L9.09998 15.6731C8.93195 15.2675 8.88919 14.7743 8.923 14.2712C8.95334 13.8449 9.03002 13.4231 9.15168 13.0134L9.15666 12.9985V12.9965C9.19192 12.8915 9.19721 12.7788 9.17192 12.6709C9.14662 12.5631 9.09176 12.4644 9.01348 12.386L4.79471 8.16827C4.71342 8.08642 4.61013 8.02989 4.49736 8.00554C4.3846 7.98118 4.26719 7.99005 4.15936 8.03106L4.04502 8.05691C3.94161 8.0768 3.79644 8.09767 3.63438 8.09767C3.49816 8.09767 3.35995 8.08475 3.22572 8.04995L8.052 3.22467C8.08499 3.35869 8.10103 3.49631 8.09973 3.63432C8.09873 3.81926 8.07387 4.00419 8.02516 4.18317L8.02416 4.18416Z" fill="#FF9900"/>
</svg>
