<svg width="16" height="16" viewBox="0 0 16 16" fill="none" xmlns="http://www.w3.org/2000/svg">
<g opacity="0.7" clip-path="url(#clip0_1_731)">
<path d="M12.706 0.666626H2.38538C1.43766 0.666626 0.666626 1.43766 0.666626 2.38538V13.6145C0.666626 14.5623 1.43766 15.3333 2.38538 15.3333H13.6145C14.5623 15.3333 15.3333 14.5623 15.3333 13.6145V3.29391L12.706 0.666626ZM5.16402 1.81246H8.57288V3.98954H9.71871V1.81246H10.8645V4.56246C10.8645 4.87837 10.6075 5.13538 10.2916 5.13538H5.73694C5.42103 5.13538 5.16402 4.87837 5.16402 4.56246V1.81246ZM12.0104 14.1875H4.01819V9.81246C4.01819 9.49655 4.2752 9.23954 4.5911 9.23954H11.4375C11.7534 9.23954 12.0104 9.49655 12.0104 9.81246V14.1875ZM14.1875 13.6145C14.1875 13.9304 13.9304 14.1875 13.6145 14.1875H13.1562V9.81246C13.1562 8.86474 12.3852 8.09371 11.4375 8.09371H4.5911C3.64339 8.09371 2.87235 8.86474 2.87235 9.81246V14.1875H2.38538C2.06947 14.1875 1.81246 13.9304 1.81246 13.6145V2.38538C1.81246 2.06947 2.06947 1.81246 2.38538 1.81246H4.01819V4.56246C4.01819 5.51018 4.78922 6.28121 5.73694 6.28121H10.2916C11.2393 6.28121 12.0104 5.51018 12.0104 4.56246V1.81246H12.2314L14.1875 3.76851V13.6145Z" fill="#070F21"/>
</g>
<defs>
<clipPath id="clip0_1_731">
<rect width="16" height="16" fill="white"/>
</clipPath>
</defs>
</svg>
