<svg width="17" height="16" viewBox="0 0 17 16" fill="none" xmlns="http://www.w3.org/2000/svg">
<mask id="path-1-outside-1_1_2825" maskUnits="userSpaceOnUse" x="0.16745" y="-0.207092" width="16" height="16" fill="black">
<rect fill="white" x="0.16745" y="-0.207092" width="16" height="16"/>
<path d="M1.30618 2.47471C1.78788 2.0186 3.41472 0.129209 3.98944 1.03594C4.06908 1.16206 4.09536 1.31466 4.0625 1.46016C4.02964 1.60566 3.94033 1.73215 3.81422 1.81182C3.19491 2.20317 2.63294 2.67862 2.14441 3.22455C2.09179 3.28367 2.02722 3.33095 1.95498 3.36329C1.88274 3.39562 1.80446 3.41227 1.72531 3.41212C1.61743 3.41054 1.51226 3.37816 1.42216 3.3188C1.33206 3.25945 1.2608 3.17559 1.21676 3.0771C1.17273 2.9786 1.15775 2.86958 1.17359 2.76286C1.18943 2.65614 1.23543 2.55616 1.30618 2.47471ZM12.1116 1.81182C12.731 2.20346 13.2931 2.67898 13.782 3.22483C13.8346 3.28386 13.8992 3.33108 13.9715 3.36336C14.0437 3.39564 14.1219 3.41226 14.2011 3.41213C14.309 3.41053 14.4142 3.37813 14.5043 3.31875C14.5944 3.25938 14.6656 3.17549 14.7097 3.07698C14.7537 2.97846 14.7687 2.86942 14.7528 2.76268C14.7369 2.65595 14.6909 2.55597 14.6201 2.47451C14.1367 2.01814 12.5141 0.130379 11.9364 1.03589C11.8568 1.16202 11.8305 1.31462 11.8633 1.46013C11.8962 1.60564 11.9855 1.73214 12.1116 1.81182ZM12.5384 13.4328C12.9002 13.0972 13.5576 12.5535 13.0283 12.0715C12.9149 11.9747 12.7678 11.9268 12.6192 11.9383C12.4705 11.9497 12.3325 12.0195 12.2352 12.1325C11.4876 13.0056 10.4904 13.6288 9.37789 13.918C8.26537 14.2072 7.09096 14.1486 6.01277 13.75C4.93458 13.3515 4.00438 12.6322 3.34742 11.6889C2.69046 10.7457 2.33829 9.62377 2.33831 8.47428C2.36172 2.86081 9.73596 0.738012 12.729 5.48601C12.8099 5.60915 12.9358 5.69567 13.0797 5.727C13.2236 5.75832 13.3741 5.73195 13.4988 5.65354C13.6235 5.57513 13.7125 5.45095 13.7466 5.30766C13.7808 5.16437 13.7574 5.0134 13.6814 4.88718C13.0761 3.91702 12.2332 3.11739 11.2325 2.56399C10.2318 2.01059 9.10643 1.72172 7.96292 1.72474C1.83409 1.71852 -1.09188 9.34763 3.39323 13.4272L2.55692 14.2637C2.5047 14.3159 2.46327 14.3779 2.43501 14.4461C2.40675 14.5143 2.3922 14.5875 2.3922 14.6613C2.3922 14.7352 2.40675 14.8083 2.43501 14.8766C2.46327 14.9448 2.5047 15.0068 2.55692 15.059C2.60915 15.1112 2.67114 15.1527 2.73938 15.1809C2.80761 15.2092 2.88074 15.2237 2.9546 15.2237C3.02845 15.2237 3.10159 15.2092 3.16982 15.1809C3.23805 15.1527 3.30005 15.1112 3.35228 15.059L4.28492 14.1262C5.38017 14.8358 6.65738 15.2132 7.9624 15.2129C9.26742 15.2126 10.5445 14.8346 11.6394 14.1245L12.5741 15.059C12.6263 15.1115 12.6883 15.1532 12.7566 15.1818C12.8249 15.2103 12.8982 15.225 12.9722 15.2251C13.0462 15.2253 13.1195 15.2108 13.1879 15.1825C13.2564 15.1542 13.3185 15.1127 13.3709 15.0604C13.4232 15.0081 13.4647 14.9459 13.493 14.8775C13.5212 14.8091 13.5357 14.7358 13.5356 14.6617C13.5354 14.5877 13.5207 14.5144 13.4922 14.4461C13.4637 14.3778 13.422 14.3158 13.3694 14.2636L12.5384 13.4328ZM7.96292 4.37638C7.88905 4.37636 7.8159 4.3909 7.74765 4.41916C7.6794 4.44742 7.61739 4.48885 7.56515 4.54108C7.51292 4.59331 7.47149 4.65533 7.44323 4.72358C7.41497 4.79183 7.40044 4.86498 7.40046 4.93884V8.47427C7.40044 8.54814 7.41497 8.62129 7.44323 8.68954C7.47149 8.75779 7.51292 8.8198 7.56515 8.87204C7.61739 8.92427 7.6794 8.9657 7.74765 8.99396C7.8159 9.02222 7.88905 9.03675 7.96292 9.03673H10.3199C10.4671 9.03386 10.6074 8.97333 10.7106 8.86816C10.8137 8.76299 10.8715 8.62156 10.8715 8.47425C10.8715 8.32695 10.8137 8.18552 10.7105 8.08036C10.6074 7.97519 10.4671 7.91468 10.3198 7.91181H8.52538V4.93884C8.5254 4.86498 8.51086 4.79183 8.4826 4.72358C8.45434 4.65533 8.41291 4.59332 8.36068 4.54108C8.30845 4.48885 8.24643 4.44742 8.17818 4.41916C8.10993 4.3909 8.03679 4.37636 7.96292 4.37638ZM15.2749 9.68626H14.1955L15.7143 7.78767C15.7789 7.70449 15.819 7.60495 15.8301 7.50022C15.8413 7.3955 15.823 7.28974 15.7774 7.19483C15.7317 7.09992 15.6605 7.01961 15.5718 6.96293C15.483 6.90625 15.3802 6.87544 15.2749 6.87396H13.025C12.8777 6.87676 12.7374 6.93725 12.6342 7.04244C12.531 7.14762 12.4732 7.28909 12.4732 7.43644C12.4732 7.58379 12.531 7.72526 12.6342 7.83044C12.7374 7.93561 12.8777 7.99609 13.0251 7.99888H14.1044L12.5856 9.89746C12.521 9.98065 12.4809 10.0802 12.4698 10.1849C12.4586 10.2897 12.4769 10.3954 12.5225 10.4903C12.5682 10.5853 12.6394 10.6656 12.7282 10.7222C12.817 10.7789 12.9198 10.8097 13.0251 10.8112H15.2749C15.4222 10.8083 15.5625 10.7478 15.6656 10.6426C15.7687 10.5374 15.8265 10.396 15.8265 10.2487C15.8265 10.1014 15.7687 9.95999 15.6656 9.85482C15.5625 9.74965 15.4222 9.68914 15.2749 9.68627V9.68626Z"/>
</mask>
<path d="M1.30618 2.47471C1.78788 2.0186 3.41472 0.129209 3.98944 1.03594C4.06908 1.16206 4.09536 1.31466 4.0625 1.46016C4.02964 1.60566 3.94033 1.73215 3.81422 1.81182C3.19491 2.20317 2.63294 2.67862 2.14441 3.22455C2.09179 3.28367 2.02722 3.33095 1.95498 3.36329C1.88274 3.39562 1.80446 3.41227 1.72531 3.41212C1.61743 3.41054 1.51226 3.37816 1.42216 3.3188C1.33206 3.25945 1.2608 3.17559 1.21676 3.0771C1.17273 2.9786 1.15775 2.86958 1.17359 2.76286C1.18943 2.65614 1.23543 2.55616 1.30618 2.47471ZM12.1116 1.81182C12.731 2.20346 13.2931 2.67898 13.782 3.22483C13.8346 3.28386 13.8992 3.33108 13.9715 3.36336C14.0437 3.39564 14.1219 3.41226 14.2011 3.41213C14.309 3.41053 14.4142 3.37813 14.5043 3.31875C14.5944 3.25938 14.6656 3.17549 14.7097 3.07698C14.7537 2.97846 14.7687 2.86942 14.7528 2.76268C14.7369 2.65595 14.6909 2.55597 14.6201 2.47451C14.1367 2.01814 12.5141 0.130379 11.9364 1.03589C11.8568 1.16202 11.8305 1.31462 11.8633 1.46013C11.8962 1.60564 11.9855 1.73214 12.1116 1.81182ZM12.5384 13.4328C12.9002 13.0972 13.5576 12.5535 13.0283 12.0715C12.9149 11.9747 12.7678 11.9268 12.6192 11.9383C12.4705 11.9497 12.3325 12.0195 12.2352 12.1325C11.4876 13.0056 10.4904 13.6288 9.37789 13.918C8.26537 14.2072 7.09096 14.1486 6.01277 13.75C4.93458 13.3515 4.00438 12.6322 3.34742 11.6889C2.69046 10.7457 2.33829 9.62377 2.33831 8.47428C2.36172 2.86081 9.73596 0.738012 12.729 5.48601C12.8099 5.60915 12.9358 5.69567 13.0797 5.727C13.2236 5.75832 13.3741 5.73195 13.4988 5.65354C13.6235 5.57513 13.7125 5.45095 13.7466 5.30766C13.7808 5.16437 13.7574 5.0134 13.6814 4.88718C13.0761 3.91702 12.2332 3.11739 11.2325 2.56399C10.2318 2.01059 9.10643 1.72172 7.96292 1.72474C1.83409 1.71852 -1.09188 9.34763 3.39323 13.4272L2.55692 14.2637C2.5047 14.3159 2.46327 14.3779 2.43501 14.4461C2.40675 14.5143 2.3922 14.5875 2.3922 14.6613C2.3922 14.7352 2.40675 14.8083 2.43501 14.8766C2.46327 14.9448 2.5047 15.0068 2.55692 15.059C2.60915 15.1112 2.67114 15.1527 2.73938 15.1809C2.80761 15.2092 2.88074 15.2237 2.9546 15.2237C3.02845 15.2237 3.10159 15.2092 3.16982 15.1809C3.23805 15.1527 3.30005 15.1112 3.35228 15.059L4.28492 14.1262C5.38017 14.8358 6.65738 15.2132 7.9624 15.2129C9.26742 15.2126 10.5445 14.8346 11.6394 14.1245L12.5741 15.059C12.6263 15.1115 12.6883 15.1532 12.7566 15.1818C12.8249 15.2103 12.8982 15.225 12.9722 15.2251C13.0462 15.2253 13.1195 15.2108 13.1879 15.1825C13.2564 15.1542 13.3185 15.1127 13.3709 15.0604C13.4232 15.0081 13.4647 14.9459 13.493 14.8775C13.5212 14.8091 13.5357 14.7358 13.5356 14.6617C13.5354 14.5877 13.5207 14.5144 13.4922 14.4461C13.4637 14.3778 13.422 14.3158 13.3694 14.2636L12.5384 13.4328ZM7.96292 4.37638C7.88905 4.37636 7.8159 4.3909 7.74765 4.41916C7.6794 4.44742 7.61739 4.48885 7.56515 4.54108C7.51292 4.59331 7.47149 4.65533 7.44323 4.72358C7.41497 4.79183 7.40044 4.86498 7.40046 4.93884V8.47427C7.40044 8.54814 7.41497 8.62129 7.44323 8.68954C7.47149 8.75779 7.51292 8.8198 7.56515 8.87204C7.61739 8.92427 7.6794 8.9657 7.74765 8.99396C7.8159 9.02222 7.88905 9.03675 7.96292 9.03673H10.3199C10.4671 9.03386 10.6074 8.97333 10.7106 8.86816C10.8137 8.76299 10.8715 8.62156 10.8715 8.47425C10.8715 8.32695 10.8137 8.18552 10.7105 8.08036C10.6074 7.97519 10.4671 7.91468 10.3198 7.91181H8.52538V4.93884C8.5254 4.86498 8.51086 4.79183 8.4826 4.72358C8.45434 4.65533 8.41291 4.59332 8.36068 4.54108C8.30845 4.48885 8.24643 4.44742 8.17818 4.41916C8.10993 4.3909 8.03679 4.37636 7.96292 4.37638ZM15.2749 9.68626H14.1955L15.7143 7.78767C15.7789 7.70449 15.819 7.60495 15.8301 7.50022C15.8413 7.3955 15.823 7.28974 15.7774 7.19483C15.7317 7.09992 15.6605 7.01961 15.5718 6.96293C15.483 6.90625 15.3802 6.87544 15.2749 6.87396H13.025C12.8777 6.87676 12.7374 6.93725 12.6342 7.04244C12.531 7.14762 12.4732 7.28909 12.4732 7.43644C12.4732 7.58379 12.531 7.72526 12.6342 7.83044C12.7374 7.93561 12.8777 7.99609 13.0251 7.99888H14.1044L12.5856 9.89746C12.521 9.98065 12.4809 10.0802 12.4698 10.1849C12.4586 10.2897 12.4769 10.3954 12.5225 10.4903C12.5682 10.5853 12.6394 10.6656 12.7282 10.7222C12.817 10.7789 12.9198 10.8097 13.0251 10.8112H15.2749C15.4222 10.8083 15.5625 10.7478 15.6656 10.6426C15.7687 10.5374 15.8265 10.396 15.8265 10.2487C15.8265 10.1014 15.7687 9.95999 15.6656 9.85482C15.5625 9.74965 15.4222 9.68914 15.2749 9.68627V9.68626Z" fill="white"/>
<path d="M1.30618 2.47471C1.78788 2.0186 3.41472 0.129209 3.98944 1.03594C4.06908 1.16206 4.09536 1.31466 4.0625 1.46016C4.02964 1.60566 3.94033 1.73215 3.81422 1.81182C3.19491 2.20317 2.63294 2.67862 2.14441 3.22455C2.09179 3.28367 2.02722 3.33095 1.95498 3.36329C1.88274 3.39562 1.80446 3.41227 1.72531 3.41212C1.61743 3.41054 1.51226 3.37816 1.42216 3.3188C1.33206 3.25945 1.2608 3.17559 1.21676 3.0771C1.17273 2.9786 1.15775 2.86958 1.17359 2.76286C1.18943 2.65614 1.23543 2.55616 1.30618 2.47471ZM12.1116 1.81182C12.731 2.20346 13.2931 2.67898 13.782 3.22483C13.8346 3.28386 13.8992 3.33108 13.9715 3.36336C14.0437 3.39564 14.1219 3.41226 14.2011 3.41213C14.309 3.41053 14.4142 3.37813 14.5043 3.31875C14.5944 3.25938 14.6656 3.17549 14.7097 3.07698C14.7537 2.97846 14.7687 2.86942 14.7528 2.76268C14.7369 2.65595 14.6909 2.55597 14.6201 2.47451C14.1367 2.01814 12.5141 0.130379 11.9364 1.03589C11.8568 1.16202 11.8305 1.31462 11.8633 1.46013C11.8962 1.60564 11.9855 1.73214 12.1116 1.81182ZM12.5384 13.4328C12.9002 13.0972 13.5576 12.5535 13.0283 12.0715C12.9149 11.9747 12.7678 11.9268 12.6192 11.9383C12.4705 11.9497 12.3325 12.0195 12.2352 12.1325C11.4876 13.0056 10.4904 13.6288 9.37789 13.918C8.26537 14.2072 7.09096 14.1486 6.01277 13.75C4.93458 13.3515 4.00438 12.6322 3.34742 11.6889C2.69046 10.7457 2.33829 9.62377 2.33831 8.47428C2.36172 2.86081 9.73596 0.738012 12.729 5.48601C12.8099 5.60915 12.9358 5.69567 13.0797 5.727C13.2236 5.75832 13.3741 5.73195 13.4988 5.65354C13.6235 5.57513 13.7125 5.45095 13.7466 5.30766C13.7808 5.16437 13.7574 5.0134 13.6814 4.88718C13.0761 3.91702 12.2332 3.11739 11.2325 2.56399C10.2318 2.01059 9.10643 1.72172 7.96292 1.72474C1.83409 1.71852 -1.09188 9.34763 3.39323 13.4272L2.55692 14.2637C2.5047 14.3159 2.46327 14.3779 2.43501 14.4461C2.40675 14.5143 2.3922 14.5875 2.3922 14.6613C2.3922 14.7352 2.40675 14.8083 2.43501 14.8766C2.46327 14.9448 2.5047 15.0068 2.55692 15.059C2.60915 15.1112 2.67114 15.1527 2.73938 15.1809C2.80761 15.2092 2.88074 15.2237 2.9546 15.2237C3.02845 15.2237 3.10159 15.2092 3.16982 15.1809C3.23805 15.1527 3.30005 15.1112 3.35228 15.059L4.28492 14.1262C5.38017 14.8358 6.65738 15.2132 7.9624 15.2129C9.26742 15.2126 10.5445 14.8346 11.6394 14.1245L12.5741 15.059C12.6263 15.1115 12.6883 15.1532 12.7566 15.1818C12.8249 15.2103 12.8982 15.225 12.9722 15.2251C13.0462 15.2253 13.1195 15.2108 13.1879 15.1825C13.2564 15.1542 13.3185 15.1127 13.3709 15.0604C13.4232 15.0081 13.4647 14.9459 13.493 14.8775C13.5212 14.8091 13.5357 14.7358 13.5356 14.6617C13.5354 14.5877 13.5207 14.5144 13.4922 14.4461C13.4637 14.3778 13.422 14.3158 13.3694 14.2636L12.5384 13.4328ZM7.96292 4.37638C7.88905 4.37636 7.8159 4.3909 7.74765 4.41916C7.6794 4.44742 7.61739 4.48885 7.56515 4.54108C7.51292 4.59331 7.47149 4.65533 7.44323 4.72358C7.41497 4.79183 7.40044 4.86498 7.40046 4.93884V8.47427C7.40044 8.54814 7.41497 8.62129 7.44323 8.68954C7.47149 8.75779 7.51292 8.8198 7.56515 8.87204C7.61739 8.92427 7.6794 8.9657 7.74765 8.99396C7.8159 9.02222 7.88905 9.03675 7.96292 9.03673H10.3199C10.4671 9.03386 10.6074 8.97333 10.7106 8.86816C10.8137 8.76299 10.8715 8.62156 10.8715 8.47425C10.8715 8.32695 10.8137 8.18552 10.7105 8.08036C10.6074 7.97519 10.4671 7.91468 10.3198 7.91181H8.52538V4.93884C8.5254 4.86498 8.51086 4.79183 8.4826 4.72358C8.45434 4.65533 8.41291 4.59332 8.36068 4.54108C8.30845 4.48885 8.24643 4.44742 8.17818 4.41916C8.10993 4.3909 8.03679 4.37636 7.96292 4.37638ZM15.2749 9.68626H14.1955L15.7143 7.78767C15.7789 7.70449 15.819 7.60495 15.8301 7.50022C15.8413 7.3955 15.823 7.28974 15.7774 7.19483C15.7317 7.09992 15.6605 7.01961 15.5718 6.96293C15.483 6.90625 15.3802 6.87544 15.2749 6.87396H13.025C12.8777 6.87676 12.7374 6.93725 12.6342 7.04244C12.531 7.14762 12.4732 7.28909 12.4732 7.43644C12.4732 7.58379 12.531 7.72526 12.6342 7.83044C12.7374 7.93561 12.8777 7.99609 13.0251 7.99888H14.1044L12.5856 9.89746C12.521 9.98065 12.4809 10.0802 12.4698 10.1849C12.4586 10.2897 12.4769 10.3954 12.5225 10.4903C12.5682 10.5853 12.6394 10.6656 12.7282 10.7222C12.817 10.7789 12.9198 10.8097 13.0251 10.8112H15.2749C15.4222 10.8083 15.5625 10.7478 15.6656 10.6426C15.7687 10.5374 15.8265 10.396 15.8265 10.2487C15.8265 10.1014 15.7687 9.95999 15.6656 9.85482C15.5625 9.74965 15.4222 9.68914 15.2749 9.68627V9.68626Z" stroke="white" stroke-width="0.2" mask="url(#path-1-outside-1_1_2825)"/>
</svg>
