<svg width="16" height="16" viewBox="0 0 16 16" fill="none" xmlns="http://www.w3.org/2000/svg">
<path d="M3.83442 11.6298L4.8888 10.5731L4.88886 10.5731C4.99168 10.4704 5.13108 10.4127 5.27639 10.4128C5.42171 10.4129 5.56105 10.4707 5.66374 10.5735C5.76644 10.6764 5.82408 10.8158 5.824 10.9611C5.82391 11.1064 5.7661 11.2457 5.66328 11.3484M3.83442 11.6298L5.62795 11.313M3.83442 11.6298V3.00309C3.83442 2.85792 3.77676 2.7187 3.67411 2.61605C3.57146 2.5134 3.43224 2.45574 3.28707 2.45574C3.1419 2.45574 3.00268 2.5134 2.90003 2.61605C2.79738 2.7187 2.73972 2.85792 2.73972 3.00309V11.6291L1.68532 10.5739L1.6853 10.5739C1.6344 10.523 1.57396 10.4826 1.50745 10.4551C1.44094 10.4275 1.36965 10.4134 1.29765 10.4134C1.22566 10.4134 1.15437 10.4275 1.08786 10.4551C1.02135 10.4826 0.960914 10.523 0.910007 10.5739C0.859101 10.6248 0.818719 10.6853 0.791169 10.7518C0.763618 10.8183 0.749438 10.8896 0.749438 10.9616C0.749438 11.0336 0.763618 11.1049 0.791169 11.1714C0.818719 11.2379 0.859101 11.2983 0.910007 11.3492L0.910022 11.3492L2.89944 13.337L2.89938 13.3371L2.90156 13.339L2.90816 13.3449L3.83442 11.6298ZM5.66328 11.3484L5.62795 11.313M5.66328 11.3484L5.66331 11.3484L5.62795 11.313M5.66328 11.3484L3.67406 13.3376L3.63853 13.3025M5.62795 11.313L3.63853 13.3025M3.63853 13.3025L3.67389 13.3378L3.67394 13.3378L3.63853 13.3025ZM7.37622 3.61076C7.27357 3.71341 7.2159 3.85263 7.2159 3.9978C7.2159 4.14297 7.27357 4.28219 7.37622 4.38484C7.47887 4.48749 7.61809 4.54515 7.76326 4.54515H14.7262C14.8714 4.54515 15.0106 4.48749 15.1132 4.38484C15.2159 4.28219 15.2736 4.14297 15.2736 3.9978C15.2736 3.85263 15.2159 3.71341 15.1132 3.61076C15.0106 3.50811 14.8714 3.45045 14.7262 3.45045H7.76326C7.61809 3.45045 7.47887 3.50811 7.37622 3.61076ZM7.76326 6.43457C7.61809 6.43457 7.47887 6.49224 7.37622 6.59489C7.27357 6.69754 7.2159 6.83676 7.2159 6.98192C7.2159 7.12709 7.27357 7.26631 7.37622 7.36896C7.47887 7.47161 7.61809 7.52928 7.76326 7.52928H12.7368C12.882 7.52928 13.0212 7.47161 13.1238 7.36896C13.2265 7.26631 13.2841 7.12709 13.2841 6.98192C13.2841 6.83676 13.2265 6.69754 13.1238 6.59489C13.0212 6.49224 12.882 6.43457 12.7368 6.43457H7.76326ZM7.76326 9.41869C7.61809 9.41869 7.47887 9.47636 7.37622 9.57901C7.27357 9.68166 7.2159 9.82088 7.2159 9.96605C7.2159 10.1112 7.27357 10.2504 7.37622 10.3531C7.47887 10.4557 7.61809 10.5134 7.76326 10.5134H10.7474C10.8925 10.5134 11.0318 10.4557 11.1344 10.3531C11.2371 10.2504 11.2947 10.1112 11.2947 9.96605C11.2947 9.82088 11.2371 9.68166 11.1344 9.57901C11.0318 9.47636 10.8925 9.41869 10.7474 9.41869H7.76326ZM7.76326 12.4028C7.69138 12.4028 7.6202 12.417 7.55379 12.4445C7.48738 12.472 7.42705 12.5123 7.37622 12.5631C7.32539 12.614 7.28507 12.6743 7.25757 12.7407C7.23006 12.8071 7.2159 12.8783 7.2159 12.9502C7.2159 13.0221 7.23006 13.0932 7.25757 13.1596C7.28507 13.226 7.32539 13.2864 7.37622 13.3372C7.42705 13.388 7.48738 13.4284 7.55379 13.4559C7.6202 13.4834 7.69138 13.4975 7.76326 13.4975H8.75796C8.82984 13.4975 8.90102 13.4834 8.96743 13.4559C9.03384 13.4284 9.09418 13.388 9.145 13.3372C9.19583 13.2864 9.23615 13.226 9.26365 13.1596C9.29116 13.0932 9.30532 13.0221 9.30532 12.9502C9.30532 12.8783 9.29116 12.8071 9.26365 12.7407C9.23615 12.6743 9.19583 12.614 9.145 12.5631C9.09418 12.5123 9.03384 12.472 8.96743 12.4445C8.90102 12.417 8.82984 12.4028 8.75796 12.4028H7.76326Z" fill="#070F21" stroke="#070F21" stroke-width="0.1"/>
</svg>
