<svg width="21" height="24" viewBox="0 0 21 24" fill="none" xmlns="http://www.w3.org/2000/svg">
<path d="M19.952 9.46464L11.9991 1.5118C11.177 0.689613 9.8391 0.689566 9.01687 1.5118C8.27775 2.25088 8.21409 3.37808 8.7599 4.18297L8.74884 4.23832C8.17547 7.10543 6.77958 9.71374 4.71197 11.7813L1.06421 15.4291C0.240059 16.2533 0.239918 17.5871 1.06421 18.4113L3.05237 20.3995C3.87647 21.2236 5.21044 21.2237 6.03464 20.3995L6.5317 19.9024L10.011 23.3818C10.8352 24.206 12.1691 24.206 12.9933 23.3818C13.8155 22.5596 13.8155 21.2217 12.9933 20.3995L11.5021 18.9084L11.9992 18.4113C12.8233 17.5872 12.8234 16.2533 11.9992 15.4291L11.6614 15.0913C13.3231 13.9279 15.2102 13.1179 17.2255 12.7149L17.2816 12.7037C18.1044 13.2592 19.2289 13.1699 19.952 12.4468H19.952C20.7741 11.6247 20.7741 10.2869 19.952 9.46464ZM5.04057 19.4054C4.76588 19.68 4.32113 19.6801 4.04644 19.4054L2.05829 17.4172C1.78356 17.1424 1.78356 16.6979 2.05829 16.4231L5.53758 12.9438L8.51986 15.9261C8.17945 16.2665 5.38936 19.0566 5.04057 19.4054ZM11.9991 21.3936C12.2732 21.6676 12.2732 22.1136 11.9991 22.3876C11.7251 22.6617 11.2791 22.6617 11.0051 22.3876L7.52573 18.9083L8.51986 17.9142L11.9991 21.3936ZM9.51393 16.9201C9.72524 16.7088 10.0416 16.3852 10.5408 15.9588L11.0051 16.4231C11.2798 16.6979 11.2798 17.1424 11.0051 17.4172L10.508 17.9143L9.51393 16.9201ZM9.54379 14.9619L6.5017 11.9198C8.13197 10.0374 9.29943 7.81525 9.92404 5.4012L16.0624 11.5396C13.6483 12.1641 11.4263 13.3316 9.54379 14.9619ZM18.9578 11.4527C18.683 11.7274 18.2384 11.7274 17.9637 11.4527L10.0109 3.49995C9.73621 3.22517 9.73621 2.78061 10.0109 2.50587C10.2857 2.23114 10.7303 2.23114 11.0051 2.50587L18.9578 10.4586C19.2318 10.7327 19.2318 11.1786 18.9578 11.4527Z" fill="#070F21"/>
</svg>
