<svg width="16" height="18" viewBox="0 0 16 18" fill="none" xmlns="http://www.w3.org/2000/svg">
<path d="M14.7139 7.09851L8.7493 1.13388C8.13269 0.51724 7.12927 0.517205 6.51259 1.13388C5.95825 1.68819 5.91051 2.53359 6.31987 3.13725L6.31157 3.17877C5.88154 5.3291 4.83462 7.28533 3.28392 8.836L0.548099 11.5718C-0.0700168 12.19 -0.0701222 13.1904 0.548099 13.8085L2.03921 15.2996C2.65729 15.9178 3.65777 15.9178 4.27592 15.2996L4.64872 14.9268L7.25822 17.5363C7.87634 18.1545 8.87674 18.1545 9.49489 17.5363C10.1116 16.9197 10.1116 15.9163 9.49489 15.2997L8.37654 14.1813L8.74933 13.8085C9.36745 13.1904 9.36752 12.19 8.74933 11.5719L8.496 11.3185C9.74225 10.4459 11.1576 9.83848 12.6691 9.53617L12.7111 9.52777C13.3282 9.9444 14.1716 9.87743 14.7139 9.33515H14.714C15.3305 8.71854 15.3305 7.71519 14.7139 7.09851ZM3.53036 14.5541C3.32435 14.7601 2.99079 14.7601 2.78477 14.554L1.29366 13.0629C1.08761 12.8568 1.08761 12.5234 1.29366 12.3174L3.90312 9.70787L6.13983 11.9446C5.88453 12.1999 3.79196 14.2925 3.53036 14.5541ZM8.7493 16.0452C8.95482 16.2507 8.95482 16.5852 8.7493 16.7908C8.54378 16.9963 8.20926 16.9963 8.00374 16.7908L5.39424 14.1813L6.13983 13.4357L8.7493 16.0452ZM6.88539 12.6901C7.04387 12.5317 7.28111 12.2889 7.65552 11.9691L8.00374 12.3174C8.20979 12.5234 8.20979 12.8568 8.00374 13.0629L7.63095 13.4357L6.88539 12.6901ZM6.90778 11.2215L4.62622 8.93989C5.84891 7.52805 6.72451 5.86147 7.19297 4.05093L11.7967 8.6547C9.9862 9.12312 8.31965 9.99872 6.90778 11.2215ZM13.9683 8.58956C13.7622 8.79557 13.4288 8.79557 13.2227 8.58956L7.25815 2.62499C7.0521 2.41891 7.0521 2.08549 7.25815 1.87944C7.4642 1.67339 7.79769 1.67339 8.00374 1.87944L13.9683 7.84396C14.1738 8.04952 14.1738 8.38396 13.9683 8.58956Z" fill="#070F21"/>
</svg>
