<svg width="14" height="14" viewBox="0 0 14 14" fill="none" xmlns="http://www.w3.org/2000/svg">
<g opacity="0.6">
<path fill-rule="evenodd" clip-rule="evenodd" d="M6.58575 1.27271C4.94373 1.27271 3.61108 2.60578 3.61108 4.24737C3.61108 5.88896 4.94373 7.22203 6.58575 7.22203C8.22733 7.22203 9.56041 5.88896 9.56041 4.24737C9.56041 2.60578 8.22733 1.27271 6.58575 1.27271ZM6.58575 2.12261C7.75819 2.12261 8.71051 3.0745 8.71051 4.24737C8.71051 5.42023 7.75819 6.37213 6.58575 6.37213C5.41288 6.37213 4.46099 5.42023 4.46099 4.24737C4.46099 3.0745 5.41288 2.12261 6.58575 2.12261Z" fill="#070F21"/>
<path fill-rule="evenodd" clip-rule="evenodd" d="M1.48638 12.3214H6.74388C6.97845 12.3214 7.16883 12.5118 7.16883 12.7464C7.16883 12.9809 6.97845 13.1713 6.74388 13.1713H1.06143C0.826428 13.1713 0.636475 12.9809 0.636475 12.7464C0.636475 12.7464 0.636475 12.3958 0.636475 11.8965C0.636475 9.78403 2.3486 8.0719 4.46104 8.0719H6.746C6.98058 8.0719 7.17096 8.26228 7.17096 8.49685C7.17096 8.73142 6.98058 8.9218 6.746 8.9218H4.46104C2.81818 8.9218 1.48638 10.2536 1.48638 11.8965V12.3214Z" fill="#070F21"/>
<path fill-rule="evenodd" clip-rule="evenodd" d="M9.25826 8.96768L9.9913 7.55174C10.0644 7.41066 10.2102 7.32227 10.3687 7.32227C10.5276 7.32227 10.6734 7.41066 10.746 7.55174L11.4795 8.96768L13.0527 9.22775C13.2095 9.25367 13.3386 9.36458 13.3875 9.51544C13.4368 9.66672 13.3977 9.83246 13.286 9.94549L12.1658 11.0805L12.405 12.6571C12.4288 12.8139 12.363 12.9711 12.2346 13.0646C12.1063 13.1577 11.9363 13.1717 11.7944 13.1008L10.3687 12.386L8.94337 13.1008C8.80144 13.1717 8.63146 13.1577 8.50312 13.0646C8.37479 12.9711 8.30892 12.8139 8.33272 12.6571L8.57154 11.0805L7.45179 9.94549C7.34003 9.83246 7.30093 9.66672 7.3498 9.51544C7.3991 9.36458 7.52828 9.25367 7.68509 9.22775L9.25826 8.96768ZM10.3687 8.67106L9.91481 9.54774C9.85319 9.66672 9.73888 9.74959 9.60672 9.77169L8.63316 9.93232L9.32625 10.6352C9.42059 10.7304 9.46394 10.8647 9.44397 10.9972L9.29608 11.9729L10.1783 11.531C10.2981 11.4706 10.4396 11.4706 10.5595 11.531L11.4417 11.9729L11.2938 10.9972C11.2738 10.8647 11.3172 10.7304 11.4115 10.6352L12.1046 9.93232L11.131 9.77169C10.9984 9.74959 10.8846 9.66672 10.8229 9.54774L10.3687 8.67106Z" fill="#070F21"/>
</g>
</svg>
