<svg width="22" height="22" viewBox="0 0 22 22" fill="none" xmlns="http://www.w3.org/2000/svg">
<path fill-rule="evenodd" clip-rule="evenodd" d="M10.349 2C7.76872 2 5.67456 4.09483 5.67456 6.67447C5.67456 9.25411 7.76872 11.3489 10.349 11.3489C12.9287 11.3489 15.0235 9.25411 15.0235 6.67447C15.0235 4.09483 12.9287 2 10.349 2ZM10.349 3.33556C12.1914 3.33556 13.6879 4.83139 13.6879 6.67447C13.6879 8.51755 12.1914 10.0134 10.349 10.0134C8.50595 10.0134 7.01012 8.51755 7.01012 6.67447C7.01012 4.83139 8.50595 3.33556 10.349 3.33556Z" fill="#070F21"/>
<path fill-rule="evenodd" clip-rule="evenodd" d="M2.33556 19.3623H10.5974C10.966 19.3623 11.2651 19.6614 11.2651 20.03C11.2651 20.3987 10.966 20.6978 10.5974 20.6978H1.66778C1.2985 20.6978 1 20.3987 1 20.03C1 20.03 1 19.4791 1 18.6945C1 15.3749 3.69049 12.6844 7.01003 12.6844H10.6007C10.9693 12.6844 11.2685 12.9836 11.2685 13.3522C11.2685 13.7208 10.9693 14.02 10.6007 14.02H7.01003C4.42839 14.02 2.33556 16.1128 2.33556 18.6945V19.3623Z" fill="#070F21"/>
<path fill-rule="evenodd" clip-rule="evenodd" d="M14.5486 14.0921L15.7006 11.8671C15.8154 11.6454 16.0445 11.5065 16.2935 11.5065C16.5433 11.5065 16.7723 11.6454 16.8865 11.8671L18.0391 14.0921L20.5112 14.5008C20.7577 14.5415 20.9607 14.7158 21.0375 14.9529C21.1149 15.1906 21.0535 15.4511 20.8779 15.6287L19.1176 17.4123L19.4935 19.8898C19.5309 20.1362 19.4274 20.3833 19.2258 20.5302C19.0241 20.6764 18.757 20.6985 18.5339 20.587L16.2935 19.4638L14.0538 20.587C13.8308 20.6985 13.5637 20.6764 13.362 20.5302C13.1603 20.3833 13.0568 20.1362 13.0942 19.8898L13.4695 17.4123L11.7099 15.6287C11.5343 15.4511 11.4728 15.1906 11.5496 14.9529C11.6271 14.7158 11.8301 14.5415 12.0765 14.5008L14.5486 14.0921ZM16.2935 13.626L15.5803 15.0036C15.4835 15.1906 15.3039 15.3208 15.0962 15.3556L13.5663 15.608L14.6555 16.7125C14.8037 16.8621 14.8718 17.0731 14.8404 17.2814L14.6081 18.8147L15.9944 18.1202C16.1827 18.0254 16.4051 18.0254 16.5934 18.1202L17.9797 18.8147L17.7473 17.2814C17.7159 17.0731 17.784 16.8621 17.9323 16.7125L19.0214 15.608L17.4915 15.3556C17.2832 15.3208 17.1042 15.1906 17.0074 15.0036L16.2935 13.626Z" fill="#070F21"/>
</svg>
